4D 54 68 64 00 00 00 06 00 01 00 01 80 00 00
80 00 40 80 01 00 08 80 02 80 02 00 00 40 80
80 00 08 80 00 80 00 40 80 80 00 08 80 02 80
02 00 00 40 80 80 00 08 80 00 80 00 40 80 80
00 08 80 02 80 02 00 00 40 80 80 00 08 80 00
80 00 40 80 80 00 08 80 02 80 02 00 00 00 00
40 80 80 00 08 80 00 80 00 40 80 80 00 08 80
04 80 04 00 00 00 00 90 08 40 64 00 0C 00 00
90 08 40 00 00 90 08 40 64 00 0C 00 00 90 08
40 00 00 90 09 40 64 00 0C 00 00 90 09 40 00
00 90 0A 40 64 00 0C 00 00 90 0A 40 00 00 90
09 40 64 00 0C 00 00 90 09 40 00 00 90 08 40
64 00 0C 00 00 90 08 40 00 00 00 00 00 00 FF 2F
00 00
